<mxfile host="app.diagrams.net" agent="Mozilla/5.0 (Windows NT 10.0; Win64; x64) AppleWebKit/537.36 (KHTML, like Gecko) Chrome/130.0.0.0 Safari/537.36 Edg/130.0.0.0" version="24.8.6">
  <diagram name="Page-1" id="_zthwM1qrgok8Lx_Dkzf">
    <mxGraphModel dx="2564" dy="885" grid="1" gridSize="10" guides="1" tooltips="1" connect="1" arrows="1" fold="1" page="1" pageScale="1" pageWidth="827" pageHeight="1169" math="0" shadow="0">
      <root>
        <mxCell id="0" />
        <mxCell id="1" parent="0" />
        <mxCell id="X0Ez7oOXucRzqC8SPfDL-1" value="" style="ellipse;shape=cloud;whiteSpace=wrap;html=1;perimeterSpacing=12;" vertex="1" parent="1">
          <mxGeometry x="-170" y="150" width="1252" height="750" as="geometry" />
        </mxCell>
        <mxCell id="X0Ez7oOXucRzqC8SPfDL-10" style="edgeStyle=orthogonalEdgeStyle;rounded=0;orthogonalLoop=1;jettySize=auto;html=1;" edge="1" parent="1" source="X0Ez7oOXucRzqC8SPfDL-2" target="X0Ez7oOXucRzqC8SPfDL-8">
          <mxGeometry relative="1" as="geometry" />
        </mxCell>
        <mxCell id="X0Ez7oOXucRzqC8SPfDL-11" value="&lt;font style=&quot;font-size: 16px;&quot;&gt;HTTP&lt;br&gt;GET&lt;/font&gt;" style="edgeLabel;html=1;align=center;verticalAlign=middle;resizable=0;points=[];" vertex="1" connectable="0" parent="X0Ez7oOXucRzqC8SPfDL-10">
          <mxGeometry x="-0.0971" y="-4" relative="1" as="geometry">
            <mxPoint as="offset" />
          </mxGeometry>
        </mxCell>
        <mxCell id="X0Ez7oOXucRzqC8SPfDL-2" value="&lt;p style=&quot;margin: 6px 0px 0px; text-align: center; font-size: 16px;&quot;&gt;&lt;b style=&quot;&quot;&gt;&lt;font style=&quot;font-size: 16px;&quot;&gt;Frontend&lt;/font&gt;&lt;/b&gt;&lt;/p&gt;&lt;hr size=&quot;1&quot; style=&quot;border-style: solid; font-size: 16px;&quot;&gt;&lt;p style=&quot;margin: 0px 0px 0px 8px; font-size: 16px;&quot;&gt;HTML, CSS, JS&lt;/p&gt;" style="align=left;overflow=fill;html=1;dropTarget=0;whiteSpace=wrap;" vertex="1" parent="1">
          <mxGeometry x="30" y="550" width="180" height="70" as="geometry" />
        </mxCell>
        <mxCell id="X0Ez7oOXucRzqC8SPfDL-3" value="" style="shape=component;jettyWidth=8;jettyHeight=4;" vertex="1" parent="X0Ez7oOXucRzqC8SPfDL-2">
          <mxGeometry x="1" width="20" height="20" relative="1" as="geometry">
            <mxPoint x="-24" y="4" as="offset" />
          </mxGeometry>
        </mxCell>
        <mxCell id="X0Ez7oOXucRzqC8SPfDL-5" style="edgeStyle=orthogonalEdgeStyle;rounded=0;orthogonalLoop=1;jettySize=auto;html=1;" edge="1" parent="1" source="X0Ez7oOXucRzqC8SPfDL-4" target="X0Ez7oOXucRzqC8SPfDL-2">
          <mxGeometry relative="1" as="geometry" />
        </mxCell>
        <mxCell id="X0Ez7oOXucRzqC8SPfDL-7" value="&lt;font style=&quot;font-size: 16px;&quot;&gt;HTTP GET&lt;/font&gt;" style="edgeLabel;html=1;align=center;verticalAlign=middle;resizable=0;points=[];" vertex="1" connectable="0" parent="X0Ez7oOXucRzqC8SPfDL-5">
          <mxGeometry x="-0.1953" y="1" relative="1" as="geometry">
            <mxPoint as="offset" />
          </mxGeometry>
        </mxCell>
        <mxCell id="X0Ez7oOXucRzqC8SPfDL-4" value="&lt;font style=&quot;font-size: 16px;&quot;&gt;User&lt;/font&gt;" style="shape=umlActor;verticalLabelPosition=bottom;verticalAlign=top;html=1;" vertex="1" parent="1">
          <mxGeometry x="-170" y="555" width="30" height="60" as="geometry" />
        </mxCell>
        <mxCell id="X0Ez7oOXucRzqC8SPfDL-29" style="edgeStyle=orthogonalEdgeStyle;rounded=0;orthogonalLoop=1;jettySize=auto;html=1;" edge="1" parent="1" source="X0Ez7oOXucRzqC8SPfDL-8" target="X0Ez7oOXucRzqC8SPfDL-28">
          <mxGeometry relative="1" as="geometry">
            <Array as="points">
              <mxPoint x="440" y="390" />
            </Array>
          </mxGeometry>
        </mxCell>
        <mxCell id="X0Ez7oOXucRzqC8SPfDL-12" value="&lt;font style=&quot;font-size: 16px;&quot;&gt;&lt;br&gt;S3 Objectstorage&lt;/font&gt;" style="shape=cylinder3;whiteSpace=wrap;html=1;boundedLbl=1;backgroundOutline=1;size=15;" vertex="1" parent="1">
          <mxGeometry x="250" y="320" width="160" height="80" as="geometry" />
        </mxCell>
        <mxCell id="X0Ez7oOXucRzqC8SPfDL-13" style="edgeStyle=orthogonalEdgeStyle;rounded=0;orthogonalLoop=1;jettySize=auto;html=1;" edge="1" parent="1" source="X0Ez7oOXucRzqC8SPfDL-8" target="X0Ez7oOXucRzqC8SPfDL-12">
          <mxGeometry relative="1" as="geometry">
            <Array as="points">
              <mxPoint x="360" y="480" />
              <mxPoint x="340" y="480" />
            </Array>
          </mxGeometry>
        </mxCell>
        <mxCell id="X0Ez7oOXucRzqC8SPfDL-16" value="" style="group" vertex="1" connectable="0" parent="1">
          <mxGeometry x="210" y="810" width="90" height="110" as="geometry" />
        </mxCell>
        <mxCell id="X0Ez7oOXucRzqC8SPfDL-14" value="" style="sketch=0;outlineConnect=0;fontColor=#232F3E;gradientColor=none;fillColor=#232F3D;strokeColor=none;dashed=0;verticalLabelPosition=bottom;verticalAlign=top;align=center;html=1;fontSize=12;fontStyle=0;aspect=fixed;pointerEvents=1;shape=mxgraph.aws4.camera2;" vertex="1" parent="X0Ez7oOXucRzqC8SPfDL-16">
          <mxGeometry x="6" width="78" height="62" as="geometry" />
        </mxCell>
        <mxCell id="X0Ez7oOXucRzqC8SPfDL-15" value="&lt;font style=&quot;font-size: 16px;&quot;&gt;WebCam&lt;/font&gt;" style="text;html=1;align=center;verticalAlign=middle;resizable=0;points=[];autosize=1;strokeColor=none;fillColor=none;" vertex="1" parent="X0Ez7oOXucRzqC8SPfDL-16">
          <mxGeometry y="80" width="90" height="30" as="geometry" />
        </mxCell>
        <mxCell id="X0Ez7oOXucRzqC8SPfDL-17" style="edgeStyle=orthogonalEdgeStyle;rounded=0;orthogonalLoop=1;jettySize=auto;html=1;" edge="1" parent="1" source="X0Ez7oOXucRzqC8SPfDL-14" target="X0Ez7oOXucRzqC8SPfDL-8">
          <mxGeometry relative="1" as="geometry" />
        </mxCell>
        <mxCell id="X0Ez7oOXucRzqC8SPfDL-18" value="&lt;font style=&quot;font-size: 16px;&quot;&gt;HTTP&lt;br&gt;POST&lt;/font&gt;" style="edgeLabel;html=1;align=center;verticalAlign=middle;resizable=0;points=[];" vertex="1" connectable="0" parent="X0Ez7oOXucRzqC8SPfDL-17">
          <mxGeometry x="-0.7783" y="3" relative="1" as="geometry">
            <mxPoint x="91" y="-58" as="offset" />
          </mxGeometry>
        </mxCell>
        <mxCell id="X0Ez7oOXucRzqC8SPfDL-31" style="edgeStyle=orthogonalEdgeStyle;rounded=0;orthogonalLoop=1;jettySize=auto;html=1;" edge="1" parent="1" source="X0Ez7oOXucRzqC8SPfDL-28" target="X0Ez7oOXucRzqC8SPfDL-21">
          <mxGeometry relative="1" as="geometry" />
        </mxCell>
        <mxCell id="X0Ez7oOXucRzqC8SPfDL-35" value="&lt;font style=&quot;font-size: 16px;&quot;&gt;EVENT &lt;br&gt;ENTRY&lt;/font&gt;" style="edgeLabel;html=1;align=center;verticalAlign=middle;resizable=0;points=[];" vertex="1" connectable="0" parent="X0Ez7oOXucRzqC8SPfDL-31">
          <mxGeometry x="-0.148" y="2" relative="1" as="geometry">
            <mxPoint as="offset" />
          </mxGeometry>
        </mxCell>
        <mxCell id="X0Ez7oOXucRzqC8SPfDL-34" value="" style="group" vertex="1" connectable="0" parent="1">
          <mxGeometry x="470" y="340" width="90.00000000000006" height="120" as="geometry" />
        </mxCell>
        <mxCell id="X0Ez7oOXucRzqC8SPfDL-28" value="" style="image;sketch=0;aspect=fixed;html=1;points=[];align=center;fontSize=12;image=img/lib/mscae/Azure_Database_for_PostgreSQL_servers.svg;" vertex="1" parent="X0Ez7oOXucRzqC8SPfDL-34">
          <mxGeometry x="10.800000000000011" width="68.4" height="90" as="geometry" />
        </mxCell>
        <mxCell id="X0Ez7oOXucRzqC8SPfDL-30" value="&lt;font style=&quot;font-size: 16px;&quot;&gt;Database&lt;/font&gt;" style="text;html=1;align=center;verticalAlign=middle;resizable=0;points=[];autosize=1;strokeColor=none;fillColor=none;" vertex="1" parent="X0Ez7oOXucRzqC8SPfDL-34">
          <mxGeometry y="90" width="90" height="30" as="geometry" />
        </mxCell>
        <mxCell id="X0Ez7oOXucRzqC8SPfDL-37" value="" style="group" vertex="1" connectable="0" parent="1">
          <mxGeometry x="670.8" y="345" width="130" height="70" as="geometry" />
        </mxCell>
        <mxCell id="X0Ez7oOXucRzqC8SPfDL-21" value="&lt;font style=&quot;font-size: 16px;&quot;&gt;&amp;nbsp;&lt;br&gt;&lt;/font&gt;&lt;b&gt;&lt;font style=&quot;font-size: 15px;&quot;&gt;PictureService&lt;/font&gt;&lt;/b&gt;" style="html=1;whiteSpace=wrap;" vertex="1" parent="X0Ez7oOXucRzqC8SPfDL-37">
          <mxGeometry width="130" height="70" as="geometry" />
        </mxCell>
        <mxCell id="X0Ez7oOXucRzqC8SPfDL-32" value="" style="outlineConnect=0;dashed=0;verticalLabelPosition=bottom;verticalAlign=top;align=center;html=1;shape=mxgraph.aws3.lambda_function;fillColor=#F58534;gradientColor=none;direction=south;rotation=-90;" vertex="1" parent="X0Ez7oOXucRzqC8SPfDL-37">
          <mxGeometry x="55.085000000000036" y="9.494999999999948" width="19.83" height="19" as="geometry" />
        </mxCell>
        <mxCell id="X0Ez7oOXucRzqC8SPfDL-38" value="" style="group" vertex="1" connectable="0" parent="1">
          <mxGeometry x="340" y="550" width="180" height="100" as="geometry" />
        </mxCell>
        <mxCell id="X0Ez7oOXucRzqC8SPfDL-8" value="&lt;p style=&quot;margin: 6px 0px 0px; text-align: center; font-size: 16px;&quot;&gt;&lt;b&gt;REST &lt;br&gt;API Service&lt;/b&gt;&lt;/p&gt;" style="align=left;overflow=fill;html=1;dropTarget=0;whiteSpace=wrap;" vertex="1" parent="X0Ez7oOXucRzqC8SPfDL-38">
          <mxGeometry width="180" height="100" as="geometry" />
        </mxCell>
        <mxCell id="X0Ez7oOXucRzqC8SPfDL-9" value="" style="shape=component;jettyWidth=8;jettyHeight=4;" vertex="1" parent="X0Ez7oOXucRzqC8SPfDL-8">
          <mxGeometry x="1" width="20" height="20" relative="1" as="geometry">
            <mxPoint x="-24" y="4" as="offset" />
          </mxGeometry>
        </mxCell>
        <mxCell id="X0Ez7oOXucRzqC8SPfDL-22" value="" style="outlineConnect=0;dashed=0;verticalLabelPosition=bottom;verticalAlign=top;align=center;html=1;shape=mxgraph.aws3.lambda_function;fillColor=#F58534;gradientColor=none;" vertex="1" parent="X0Ez7oOXucRzqC8SPfDL-38">
          <mxGeometry x="10" y="60" width="19" height="19.83" as="geometry" />
        </mxCell>
        <mxCell id="X0Ez7oOXucRzqC8SPfDL-23" value="" style="outlineConnect=0;dashed=0;verticalLabelPosition=bottom;verticalAlign=top;align=center;html=1;shape=mxgraph.aws3.lambda_function;fillColor=#F58534;gradientColor=none;" vertex="1" parent="X0Ez7oOXucRzqC8SPfDL-38">
          <mxGeometry x="50" y="60" width="19" height="19.83" as="geometry" />
        </mxCell>
        <mxCell id="X0Ez7oOXucRzqC8SPfDL-24" value="" style="outlineConnect=0;dashed=0;verticalLabelPosition=bottom;verticalAlign=top;align=center;html=1;shape=mxgraph.aws3.lambda_function;fillColor=#F58534;gradientColor=none;" vertex="1" parent="X0Ez7oOXucRzqC8SPfDL-38">
          <mxGeometry x="84" y="60" width="19" height="19.83" as="geometry" />
        </mxCell>
        <mxCell id="X0Ez7oOXucRzqC8SPfDL-25" value="" style="outlineConnect=0;dashed=0;verticalLabelPosition=bottom;verticalAlign=top;align=center;html=1;shape=mxgraph.aws3.lambda_function;fillColor=#F58534;gradientColor=none;direction=south;rotation=-90;" vertex="1" parent="X0Ez7oOXucRzqC8SPfDL-38">
          <mxGeometry x="119.58499999999998" y="60.414999999999964" width="19.83" height="19" as="geometry" />
        </mxCell>
        <mxCell id="X0Ez7oOXucRzqC8SPfDL-39" value="" style="sketch=0;outlineConnect=0;fontColor=#232F3E;gradientColor=none;strokeColor=#ffffff;fillColor=#232F3E;dashed=0;verticalLabelPosition=middle;verticalAlign=bottom;align=center;html=1;whiteSpace=wrap;fontSize=10;fontStyle=1;spacing=3;shape=mxgraph.aws4.productIcon;prIcon=mxgraph.aws4.s3;" vertex="1" parent="1">
          <mxGeometry x="310" y="330" width="40" height="50" as="geometry" />
        </mxCell>
        <mxCell id="X0Ez7oOXucRzqC8SPfDL-41" style="edgeStyle=orthogonalEdgeStyle;rounded=0;orthogonalLoop=1;jettySize=auto;html=1;entryX=1;entryY=0.5;entryDx=0;entryDy=0;" edge="1" parent="1" source="X0Ez7oOXucRzqC8SPfDL-21" target="X0Ez7oOXucRzqC8SPfDL-8">
          <mxGeometry relative="1" as="geometry">
            <Array as="points">
              <mxPoint x="765" y="600" />
            </Array>
          </mxGeometry>
        </mxCell>
        <mxCell id="X0Ez7oOXucRzqC8SPfDL-42" value="" style="group" vertex="1" connectable="0" parent="1">
          <mxGeometry x="670" y="660" width="130" height="70" as="geometry" />
        </mxCell>
        <mxCell id="X0Ez7oOXucRzqC8SPfDL-45" value="" style="group" vertex="1" connectable="0" parent="X0Ez7oOXucRzqC8SPfDL-42">
          <mxGeometry width="130" height="70" as="geometry" />
        </mxCell>
        <mxCell id="X0Ez7oOXucRzqC8SPfDL-43" value="&lt;div&gt;&lt;span style=&quot;font-size: 16px;&quot;&gt;&lt;br&gt;&lt;/span&gt;&lt;/div&gt;&lt;span style=&quot;font-size: 16px;&quot;&gt;VideoService&lt;/span&gt;" style="html=1;whiteSpace=wrap;" vertex="1" parent="X0Ez7oOXucRzqC8SPfDL-45">
          <mxGeometry width="130" height="70" as="geometry" />
        </mxCell>
        <mxCell id="X0Ez7oOXucRzqC8SPfDL-44" value="" style="outlineConnect=0;dashed=0;verticalLabelPosition=bottom;verticalAlign=top;align=center;html=1;shape=mxgraph.aws3.lambda_function;fillColor=#F58534;gradientColor=none;direction=south;rotation=-90;" vertex="1" parent="X0Ez7oOXucRzqC8SPfDL-45">
          <mxGeometry x="55.085000000000036" y="9.494999999999948" width="19.83" height="19" as="geometry" />
        </mxCell>
        <mxCell id="X0Ez7oOXucRzqC8SPfDL-46" style="edgeStyle=orthogonalEdgeStyle;rounded=0;orthogonalLoop=1;jettySize=auto;html=1;entryX=0.861;entryY=0.968;entryDx=0;entryDy=0;entryPerimeter=0;" edge="1" parent="1" source="X0Ez7oOXucRzqC8SPfDL-43" target="X0Ez7oOXucRzqC8SPfDL-8">
          <mxGeometry relative="1" as="geometry" />
        </mxCell>
        <mxCell id="X0Ez7oOXucRzqC8SPfDL-47" value="&lt;font style=&quot;font-size: 16px;&quot;&gt;EVENT&lt;br&gt;Timebased&lt;/font&gt;" style="edgeLabel;html=1;align=center;verticalAlign=middle;resizable=0;points=[];" vertex="1" connectable="0" parent="X0Ez7oOXucRzqC8SPfDL-46">
          <mxGeometry x="-0.4839" y="1" relative="1" as="geometry">
            <mxPoint as="offset" />
          </mxGeometry>
        </mxCell>
      </root>
    </mxGraphModel>
  </diagram>
</mxfile>
